<?xml version="1.0" encoding="iso-8859-1"?>
<!-- Generator: Adobe Illustrator 19.0.0, SVG Export Plug-In . SVG Version: 6.00 Build 0)  -->
<svg version="1.1" id="Capa_1" xmlns="http://www.w3.org/2000/svg" xmlns:xlink="http://www.w3.org/1999/xlink" x="0px" y="0px"
	 viewBox="0 0 512.006 512.006" style="enable-background:new 0 0 512.006 512.006;" xml:space="preserve">
<g>
	<g>
		<g>
			<path d="M392.533,221.707c-28.237,0-51.2,22.963-51.2,51.2c0,28.237,22.963,51.2,51.2,51.2c28.237,0,51.2-22.963,51.2-51.2
				C443.733,244.67,420.77,221.707,392.533,221.707z M392.533,307.04c-18.825,0-34.133-15.309-34.133-34.133
				c0-18.825,15.309-34.133,34.133-34.133c18.825,0,34.133,15.309,34.133,34.133C426.667,291.731,411.358,307.04,392.533,307.04z"/>
			<path d="M119.467,221.707c-28.237,0-51.2,22.963-51.2,51.2c0,28.237,22.963,51.2,51.2,51.2s51.2-22.963,51.2-51.2
				C170.667,244.67,147.703,221.707,119.467,221.707z M119.467,307.04c-18.825,0-34.133-15.309-34.133-34.133
				c0-18.825,15.309-34.133,34.133-34.133s34.133,15.309,34.133,34.133C153.6,291.731,138.291,307.04,119.467,307.04z"/>
			<path d="M256,375.307c-47.846,0-85.333,22.494-85.333,51.2s37.487,51.2,85.333,51.2s85.333-22.494,85.333-51.2
				S303.846,375.307,256,375.307z M256,460.64c-40.226,0-68.267-17.988-68.267-34.133s28.041-34.133,68.267-34.133
				s68.267,17.988,68.267,34.133S296.226,460.64,256,460.64z"/>
			<path d="M387.316,162.891l102.623-92.718l12.066-12.066c6.451-6.443,10.001-15.019,10.001-24.132
				c0-9.122-3.55-17.69-10.001-24.132c-12.885-12.902-35.379-12.902-48.265,0l-12.373,12.382L330.941,144.577
				c-24.32-5.443-49.503-8.204-74.941-8.204c-141.158,0-256,84.216-256,187.733S114.842,511.84,256,511.84s256-84.215,256-187.733
				C512,257.502,464.582,196.681,387.316,162.891z M334.072,187.995c-2.127-4.44-5.3-8.266-9.226-11.199l11.82-13.097l11.534,11.534
				L334.072,187.995z M247.62,231.836c0.759,4.028,4.284,6.938,8.38,6.938h33.054c-3.798,14.707-17.175,25.6-33.054,25.6
				c-18.825,0-34.133-15.309-34.133-34.133s15.309-34.133,34.133-34.133c5.836,0,11.514,1.547,16.649,4.493
				c-3.013,14.73-19.062,21.411-19.781,21.705C249.054,223.806,246.852,227.808,247.62,231.836z M281.062,221.707
				c5.137-6.468,9.139-15.019,9.139-25.958c0-6.349,0.58-8.175,13.594-8.175h1.775c8.226,0,14.43,5.914,14.43,13.747l0.034,3.14
				c0.094,5.453,0.196,12.245-2.475,14.967c-1.852,1.886-5.641,2.278-8.499,2.278H281.062z M360.88,163.779l-12.765-12.765
				l10.052-11.138l13.972,13.732L360.88,163.779z M453.74,33.975l12.066-12.066c6.451-6.451,17.681-6.451,24.132,0
				c3.226,3.226,5.001,7.509,5.001,12.066c0,4.557-1.775,8.841-5.001,12.066l-11.75,11.767l-93.364,84.339l-15.214-14.953
				L453.74,33.975z M256,494.773c-131.746,0-238.933-76.561-238.933-170.667S124.254,153.44,256,153.44
				c20.879,0,41.568,1.953,61.694,5.816l-10.207,11.31c-0.634-0.036-1.272-0.059-1.916-0.059h-1.775
				c-6.64,0-21.998,0.013-28.093,12.572c-6.224-2.659-12.881-4.039-19.702-4.039c-28.237,0-51.2,22.963-51.2,51.2
				s22.963,51.2,51.2,51.2c25.329,0,46.401-18.481,50.476-42.667h2.585c8.9,0,15.846-2.483,20.668-7.381
				c6.484-6.592,7.369-15.594,7.406-23.163l36.205-32.711c75.14,30.394,121.594,86.961,121.594,148.588
				C494.933,418.212,387.746,494.773,256,494.773z"/>
		</g>
	</g>
</g>
<g>
</g>
<g>
</g>
<g>
</g>
<g>
</g>
<g>
</g>
<g>
</g>
<g>
</g>
<g>
</g>
<g>
</g>
<g>
</g>
<g>
</g>
<g>
</g>
<g>
</g>
<g>
</g>
<g>
</g>
</svg>
