<?xml version="1.0" encoding="iso-8859-1"?>
<!-- Generator: Adobe Illustrator 19.0.0, SVG Export Plug-In . SVG Version: 6.00 Build 0)  -->
<svg version="1.1" id="Capa_1" xmlns="http://www.w3.org/2000/svg" xmlns:xlink="http://www.w3.org/1999/xlink" x="0px" y="0px"
	 viewBox="0 0 512 512" style="enable-background:new 0 0 512 512;" xml:space="preserve">
<g>
	<g>
		<g>
			<path d="M136.534,324.267h53.06c8.9,0,15.846-2.483,20.668-7.381c6.484-6.592,7.369-15.594,7.406-23.163l29.13-26.318
				c0.012-0.011,0.025-0.02,0.037-0.03l23.996-21.675c0.029-0.026,0.054-0.056,0.082-0.082l99.56-89.95l12.066-12.066
				c6.451-6.443,10.001-15.019,10.001-24.132c0-9.122-3.55-17.69-10.001-24.132c-12.885-12.902-35.379-12.902-48.265,0
				l-12.373,12.382l-91.913,101.841l-19.437,21.532c-0.013,0.014-0.023,0.03-0.036,0.044l-22.495,24.924
				c-0.634-0.036-1.272-0.059-1.916-0.059h-1.775c-8.38,0-30.66,0-30.66,25.242c0,18.125-19.473,26.231-20.267,26.556
				c-3.814,1.502-6.016,5.504-5.248,9.532C128.914,321.357,132.438,324.267,136.534,324.267z M238.703,225.373l13.968,13.729
				l-11.258,10.169l-12.763-12.763L238.703,225.373z M334.275,119.468l12.066-12.066c6.451-6.451,17.681-6.451,24.132,0
				c3.226,3.226,5.001,7.509,5.001,12.066s-1.775,8.841-5.001,12.066l-11.75,11.767l-93.361,84.337l-15.215-14.953L334.275,119.468z
				 M217.201,249.192l11.534,11.534l-14.128,12.763c-2.127-4.44-5.3-8.266-9.226-11.199L217.201,249.192z M170.736,281.242
				c0-6.349,0.58-8.175,13.594-8.175h1.775c8.226,0,14.43,5.914,14.43,13.747l0.034,3.14c0.094,5.453,0.196,12.245-2.475,14.967
				c-1.852,1.886-5.641,2.278-8.499,2.278h-27.998C166.734,300.732,170.736,292.181,170.736,281.242z"/>
			<path d="M409.6,392.533c18.825,0,34.133-15.309,34.133-34.133V51.2c0-18.825-15.309-34.133-34.133-34.133h-27.068
				C379.008,7.135,369.523,0,358.4,0H153.6c-11.123,0-20.608,7.135-24.132,17.067H102.4c-18.825,0-34.133,15.309-34.133,34.133
				v307.2c0,18.825,15.309,34.133,34.133,34.133h10.002c1.201,3.385,3.095,6.442,5.511,9.005l-32.918,74.515
				c-5.709,12.902,0.154,28.049,13.065,33.766c3.362,1.476,6.861,2.176,10.308,2.176c9.839,0,19.234-5.692,23.458-15.258
				l38.501-87.138H230.4v76.8c0,14.114,11.486,25.6,25.6,25.6c14.114,0,25.6-11.486,25.6-25.6v-76.8h74.608l38.501,87.138
				c4.233,9.566,13.628,15.258,23.458,15.258c3.447,0,6.955-0.7,10.308-2.185c12.911-5.709,18.773-20.847,13.073-33.758
				l-35.185-79.615c0.694-1.242,1.286-2.547,1.768-3.905H409.6z M153.6,17.067h204.8c4.702,0,8.533,3.831,8.533,8.533
				c0,4.702-3.831,8.533-8.533,8.533H153.6c-4.702,0-8.533-3.831-8.533-8.533C145.067,20.898,148.898,17.067,153.6,17.067z
				 M85.333,358.4V51.2c0-9.412,7.654-17.067,17.067-17.067h27.068C132.992,44.065,142.477,51.2,153.6,51.2h204.8
				c11.123,0,20.608-7.135,24.132-17.067H409.6c9.412,0,17.067,7.654,17.067,17.067v307.2c0,9.412-7.654,17.067-17.067,17.067
				h-1.468C404.609,365.535,395.123,358.4,384,358.4H136.533c-11.123,0-20.608,7.135-24.132,17.067H102.4
				C92.988,375.467,85.333,367.812,85.333,358.4z M273.067,392.533h-34.133h-102.4c-4.702,0-8.533-3.831-8.533-8.533
				c0-4.702,3.831-8.533,8.533-8.533H384c4.702,0,8.533,3.831,8.533,8.533c0,4.702-3.831,8.533-8.533,8.533H273.067z
				 M116.209,489.843c-1.894,4.309-6.946,6.263-11.247,4.36c-4.309-1.903-6.263-6.955-4.361-11.255l32.51-73.584
				c1.12,0.15,2.261,0.235,3.421,0.235h15.135L116.209,489.843z M264.533,486.4c0,4.702-3.831,8.533-8.533,8.533
				c-4.702,0-8.533-3.831-8.533-8.533v-76.8h17.067V486.4z M421.572,494.204c-4.284,1.903-9.353-0.051-11.247-4.36L374.866,409.6
				H384c3.102,0,6.077-0.556,8.831-1.572l33.11,74.92C427.836,487.249,425.882,492.301,421.572,494.204z"/>
		</g>
	</g>
</g>
<g>
</g>
<g>
</g>
<g>
</g>
<g>
</g>
<g>
</g>
<g>
</g>
<g>
</g>
<g>
</g>
<g>
</g>
<g>
</g>
<g>
</g>
<g>
</g>
<g>
</g>
<g>
</g>
<g>
</g>
</svg>
