<?xml version="1.0" encoding="iso-8859-1"?>
<!-- Generator: Adobe Illustrator 19.0.0, SVG Export Plug-In . SVG Version: 6.00 Build 0)  -->
<svg version="1.1" id="Capa_1" xmlns="http://www.w3.org/2000/svg" xmlns:xlink="http://www.w3.org/1999/xlink" x="0px" y="0px"
	 viewBox="0 0 503.603 503.603" style="enable-background:new 0 0 503.603 503.603;" xml:space="preserve">
<g>
	<g>
		<g>
			<path d="M209.576,459.596c-0.932-3.735-4.281-6.354-8.133-6.354h-0.507l-16.295-260.717c-0.008-0.129-0.029-0.253-0.043-0.38
				c-0.01-0.094-0.018-0.187-0.032-0.28c-0.048-0.338-0.113-0.67-0.199-0.992c-0.018-0.069-0.044-0.136-0.064-0.204
				c-0.08-0.269-0.172-0.531-0.277-0.787c-0.04-0.099-0.08-0.196-0.124-0.294c-0.136-0.301-0.285-0.594-0.454-0.874
				c-0.045-0.075-0.097-0.145-0.145-0.218c-0.146-0.226-0.302-0.443-0.469-0.653c-0.043-0.055-0.077-0.115-0.121-0.169
				l-40.027-48.032V92.328c0-4.642-3.752-8.393-8.393-8.393H83.932c-4.642,0-8.393,3.752-8.393,8.393v47.319l-40.022,48.026
				c-0.037,0.044-0.063,0.094-0.099,0.138c-0.186,0.232-0.36,0.474-0.521,0.726c-0.035,0.054-0.074,0.106-0.107,0.162
				c-0.175,0.288-0.328,0.59-0.468,0.9c-0.041,0.09-0.077,0.181-0.114,0.272c-0.105,0.258-0.198,0.521-0.278,0.791
				c-0.021,0.072-0.048,0.143-0.068,0.216c-0.084,0.314-0.146,0.636-0.193,0.963c-0.017,0.118-0.027,0.236-0.04,0.355
				c-0.011,0.11-0.03,0.218-0.037,0.329L17.289,453.242h-0.502c-3.853,0-7.21,2.619-8.142,6.354L0.252,493.17
				c-0.63,2.51-0.067,5.17,1.528,7.202c1.586,2.04,4.029,3.232,6.614,3.232h201.443c2.577,0,5.019-1.192,6.614-3.232
				c1.586-2.031,2.157-4.692,1.519-7.202L209.576,459.596z M172.047,260.193H46.179l3.672-58.754h118.524L172.047,260.193z
				 M45.13,276.98h127.966l6.295,100.721H38.835L45.13,276.98z M125.9,100.722v33.57H92.326v-33.57H125.9z M87.864,151.082h42.495
				l27.98,33.57H59.884L87.864,151.082z M37.785,394.488H180.44l3.672,58.754H34.113L37.785,394.488z M19.146,486.816l4.197-16.787
				h1.84h167.869h1.828l4.197,16.787H19.146z"/>
			<path d="M503.347,493.17l-8.393-33.574c-0.932-3.735-4.281-6.354-8.133-6.354h-0.393l-16.406-344.526
				c-0.007-0.151-0.028-0.298-0.043-0.446c-0.011-0.105-0.016-0.211-0.03-0.316c-0.046-0.334-0.113-0.661-0.197-0.981
				c-0.022-0.084-0.05-0.166-0.074-0.249c-0.081-0.274-0.175-0.541-0.282-0.802c-0.03-0.074-0.058-0.148-0.09-0.221
				c-0.141-0.317-0.3-0.624-0.478-0.919c-0.038-0.063-0.081-0.124-0.121-0.186c-0.161-0.252-0.336-0.495-0.522-0.728
				c-0.034-0.042-0.059-0.089-0.094-0.131l-40.027-48.032V8.394c0-4.642-3.752-8.393-8.393-8.393H369.31
				c-4.642,0-8.393,3.752-8.393,8.393v47.319l-40.022,48.026c-0.024,0.028-0.041,0.06-0.064,0.089
				c-0.21,0.259-0.405,0.53-0.584,0.814c-0.025,0.04-0.053,0.079-0.077,0.119c-0.189,0.31-0.356,0.634-0.504,0.97
				c-0.02,0.044-0.036,0.09-0.055,0.135c-0.127,0.303-0.237,0.615-0.329,0.936c-0.013,0.044-0.028,0.088-0.04,0.132
				c-0.094,0.35-0.167,0.708-0.216,1.075c-0.005,0.036-0.006,0.073-0.011,0.109c-0.024,0.199-0.049,0.397-0.059,0.6L302.55,453.242
				h-0.386c-3.853,0-7.21,2.619-8.142,6.354l-8.393,33.574c-0.63,2.51-0.067,5.17,1.528,7.202c1.586,2.04,4.029,3.232,6.614,3.232
				h201.443c2.577,0,5.019-1.192,6.614-3.232C503.414,498.34,503.985,495.679,503.347,493.17z M458.432,218.226H330.546
				l4.794-100.721h118.297L458.432,218.226z M329.747,235.013h129.484l4.794,100.721H324.953L329.747,235.013z M411.277,16.787
				v33.57h-33.574v-33.57H411.277z M373.241,67.148h42.495l27.98,33.57h-98.455L373.241,67.148z M324.154,352.521h140.671
				l4.794,100.721H319.359L324.154,352.521z M304.523,486.816l4.197-16.787h1.835h167.869h1.833l4.197,16.787H304.523z"/>
			<path d="M109.114,293.767c-18.516,0-33.574,15.058-33.574,33.574s15.058,33.574,33.574,33.574s33.574-15.058,33.574-33.574
				S127.63,293.767,109.114,293.767z M109.114,344.127c-9.258,0-16.787-7.529-16.787-16.787s7.529-16.787,16.787-16.787
				c9.258,0,16.787,7.529,16.787,16.787S118.372,344.127,109.114,344.127z"/>
			<path d="M394.491,251.799c-18.516,0-33.574,15.058-33.574,33.574c0,18.516,15.058,33.574,33.574,33.574
				c18.516,0,33.574-15.058,33.574-33.574C428.064,266.857,413.007,251.799,394.491,251.799z M394.491,302.16
				c-9.258,0-16.787-7.529-16.787-16.787c0-9.258,7.529-16.787,16.787-16.787c9.258,0,16.787,7.529,16.787,16.787
				C411.278,294.631,403.749,302.16,394.491,302.16z"/>
		</g>
	</g>
</g>
<g>
</g>
<g>
</g>
<g>
</g>
<g>
</g>
<g>
</g>
<g>
</g>
<g>
</g>
<g>
</g>
<g>
</g>
<g>
</g>
<g>
</g>
<g>
</g>
<g>
</g>
<g>
</g>
<g>
</g>
</svg>
