<?xml version="1.0" encoding="iso-8859-1"?>
<!-- Generator: Adobe Illustrator 19.0.0, SVG Export Plug-In . SVG Version: 6.00 Build 0)  -->
<svg version="1.1" id="Capa_1" xmlns="http://www.w3.org/2000/svg" xmlns:xlink="http://www.w3.org/1999/xlink" x="0px" y="0px"
	 viewBox="0 0 503.606 503.606" style="enable-background:new 0 0 503.606 503.606;" xml:space="preserve">
<g>
	<g>
		<g>
			<path d="M484.361,144.899L341.916,2.462c-1.821-1.838-4.406-2.711-6.958-2.401c-2.56,0.319-4.843,1.796-6.169,4.012
				l-17.802,29.679c-1.989,3.299-1.46,7.529,1.259,10.248l0.34,0.34L183.689,189.353c-0.053,0.062-0.113,0.121-0.164,0.185
				l-55.598,62.549c-0.091,0.102-0.17,0.211-0.255,0.316c-0.058,0.072-0.118,0.141-0.173,0.215c-0.212,0.28-0.406,0.57-0.578,0.868
				c-0.023,0.039-0.041,0.08-0.063,0.12c-0.156,0.282-0.293,0.57-0.414,0.864c-0.026,0.063-0.053,0.125-0.078,0.189
				c-0.129,0.335-0.238,0.674-0.322,1.02c-0.01,0.043-0.017,0.086-0.026,0.129c-0.072,0.318-0.123,0.639-0.158,0.961
				c-0.005,0.046-0.018,0.089-0.022,0.135l-5.943,65.284c-0.227,2.484,0.663,4.935,2.426,6.698l0.002,0.002l-29.675,29.675
				c-3.282,3.273-3.282,8.586,0,11.868l8.074,8.077v24.378c0,4.633,3.752,8.393,8.393,8.393c4.642,0,8.393-3.76,8.393-8.393v-7.778
				c1.401,0.981,3.07,1.528,4.81,1.528c2.233,0,4.365-0.89,5.934-2.459l29.679-29.679l0.002,0.002
				c1.586,1.578,3.718,2.459,5.934,2.459c0.252,0,0.512-0.017,0.764-0.034l65.284-5.934c0.085-0.008,0.166-0.031,0.251-0.041
				c0.243-0.029,0.485-0.069,0.725-0.119c0.12-0.025,0.239-0.049,0.356-0.08c0.311-0.079,0.618-0.175,0.92-0.29
				c0.074-0.029,0.145-0.062,0.218-0.093c0.27-0.112,0.535-0.239,0.795-0.381c0.06-0.033,0.121-0.063,0.18-0.097
				c0.295-0.171,0.582-0.362,0.859-0.572c0.059-0.045,0.115-0.093,0.173-0.14c0.114-0.091,0.23-0.177,0.341-0.275l207.754-184.666
				l0.334,0.334c1.612,1.62,3.769,2.459,5.934,2.459c1.486,0,2.971-0.386,4.323-1.192l29.671-17.802
				c2.208-1.326,3.693-3.609,4.004-6.178C487.072,149.297,486.191,146.729,484.361,144.899z M292.328,285.235l-90.742-90.749
				l67.031-75.41l99.126,99.126L292.328,285.235z M190.409,207.06l89.352,89.345l-50.273,44.685l-83.758-83.767L190.409,207.06z
				 M122.319,376.372l-7.186-7.191c-0.055-0.057-0.112-0.113-0.169-0.169l-4.514-4.517l23.74-23.74l11.872,11.873L122.319,376.372z
				 M163.874,346.702c-0.003-0.003-0.005-0.006-0.008-0.009l-23.737-23.745c-0.031-0.031-0.066-0.058-0.097-0.088l-3.065-3.065
				l3.969-43.518l69.608,69.614l-43.52,3.961L163.874,346.702z M380.31,207.032L279.788,106.509l44.689-50.275l106.11,106.11
				L380.31,207.032z M450.057,158.068L328.746,36.766l8.905-14.84l127.245,127.245L450.057,158.068z"/>
			<path d="M306.31,180.512c-13.102-13.094-34.388-13.085-47.482,0c-13.085,13.085-13.085,34.388,0,47.482
				c6.547,6.538,15.142,9.812,23.737,9.812c8.595,0,17.207-3.273,23.745-9.812C319.395,214.9,319.395,193.598,306.31,180.512z
				 M294.442,216.126c-6.53,6.53-17.198,6.547-23.745,0c-6.538-6.547-6.538-17.198,0-23.745c6.547-6.538,17.198-6.555,23.745,0
				C300.98,198.927,300.98,209.579,294.442,216.126z"/>
			<path d="M147.676,449.057c-8.477-13.085-22.78-20.992-38.559-20.992c-15.78,0-30.082,7.907-38.56,20.992
				c-25.046,0.411-53.768,20.43-53.768,46.156c0,4.633,3.752,8.393,8.393,8.393h159.475c4.633,0,8.393-3.76,8.393-8.393
				C193.051,470.024,172.764,449.477,147.676,449.057z M35.59,486.819c5.666-11.81,22.192-20.984,35.756-20.984
				c0.512,0,1.007,0.092,1.502,0.159l1.511,0.193c3.475,0.344,6.883-1.511,8.419-4.684c4.994-10.274,15.083-16.653,26.339-16.653
				c11.256,0,21.344,6.379,26.33,16.653c1.544,3.173,4.952,5.028,8.419,4.684l1.511-0.193c0.504-0.067,0.99-0.159,1.511-0.159
				c13.287,0,24.534,8.863,28.152,20.984H35.59z"/>
		</g>
	</g>
</g>
<g>
</g>
<g>
</g>
<g>
</g>
<g>
</g>
<g>
</g>
<g>
</g>
<g>
</g>
<g>
</g>
<g>
</g>
<g>
</g>
<g>
</g>
<g>
</g>
<g>
</g>
<g>
</g>
<g>
</g>
</svg>
