<?xml version="1.0" encoding="iso-8859-1"?>
<!-- Generator: Adobe Illustrator 19.0.0, SVG Export Plug-In . SVG Version: 6.00 Build 0)  -->
<svg version="1.1" id="Capa_1" xmlns="http://www.w3.org/2000/svg" xmlns:xlink="http://www.w3.org/1999/xlink" x="0px" y="0px"
	 viewBox="0 0 512.134 512.134" style="enable-background:new 0 0 512.134 512.134;" xml:space="preserve">
<g transform="translate(-1)">
	<g>
		<g>
			<path d="M103.528,247.502c-28.237,0-51.2,22.963-51.2,51.2s22.963,51.2,51.2,51.2c28.237,0,51.2-22.963,51.2-51.2
				S131.764,247.502,103.528,247.502z M103.528,332.835c-18.825,0-34.133-15.309-34.133-34.133s15.309-34.133,34.133-34.133
				c18.825,0,34.133,15.309,34.133,34.133S122.352,332.835,103.528,332.835z"/>
			<path d="M248.594,170.702c0-28.237-22.963-51.2-51.2-51.2s-51.2,22.963-51.2,51.2s22.963,51.2,51.2,51.2
				S248.594,198.939,248.594,170.702z M163.261,170.702c0-18.825,15.309-34.133,34.133-34.133s34.133,15.309,34.133,34.133
				s-15.309,34.133-34.133,34.133S163.261,189.527,163.261,170.702z"/>
			<path d="M342.461,59.769c-28.237,0-51.2,22.963-51.2,51.2s22.963,51.2,51.2,51.2c28.237,0,51.2-22.963,51.2-51.2
				S370.698,59.769,342.461,59.769z M342.461,145.102c-18.825,0-34.133-15.309-34.133-34.133s15.309-34.133,34.133-34.133
				c18.825,0,34.133,15.309,34.133,34.133S361.286,145.102,342.461,145.102z"/>
			<path d="M512.976,180.811c-1.809-51.063-20.019-95.309-52.676-127.949C418.426,10.98,357.814-6.94,289.616,2.43
				c-67.32,9.233-134.11,44.049-188.083,98.014C47.568,154.409,12.76,221.207,3.519,288.527
				c-9.361,68.19,8.55,128.802,50.432,170.684c34.799,34.799,82.313,52.924,135.774,52.924c21.999-0.009,45.005-3.072,68.531-9.31
				c53.248-14.106,86.374-66.918,77.056-122.854c-4.557-27.383,2.398-52.659,19.081-69.342
				c13.355-13.355,31.616-20.412,52.821-20.412h0.307c28.561,0,55.407-11.494,75.597-32.384
				C503.393,236.866,513.991,209.508,512.976,180.811z M470.847,245.971c-16.947,17.527-39.424,27.179-63.326,27.179h-0.299
				c-25.463,0-48.512,9.02-64.896,25.412c-20.634,20.634-29.321,51.328-23.842,84.216c7.859,47.189-19.917,91.708-64.606,103.552
				c-74.675,19.806-143.164,5.513-187.861-39.185c-38.016-38.016-54.204-93.525-45.585-156.297
				c8.73-63.65,41.822-126.985,93.167-178.338c51.354-51.345,114.688-84.437,178.338-93.175c11.017-1.51,21.811-2.261,32.324-2.261
				c49.391,0,92.629,16.512,123.972,47.855c29.542,29.534,46.029,69.82,47.684,116.489
				C496.771,205.438,487.862,228.367,470.847,245.971z"/>
			<path d="M305.829,200.87l-18.569,3.098c-4.949,0.819-9.651,2.5-13.986,4.975l-46.549,26.598
				c-6.528,3.738-11.955,9.165-15.693,15.693l-15.309,26.803c-10.368,18.133-6.05,40.772,10.257,53.82l5.299,4.241
				c7.561,6.05,16.939,9.216,26.402,9.216c4.966,0,9.958-0.879,14.729-2.662l41.182-15.437l0.009-0.008
				c7.552-2.833,14.089-7.74,18.91-14.174l33.971-45.295c8.772-11.691,10.846-27.383,5.419-40.943
				C344.596,208.533,325.208,197.636,305.829,200.87z M225.855,259.699c2.219-3.891,5.444-7.117,9.335-9.335l46.558-26.598
				c2.577-1.476,5.367-2.475,8.32-2.97l18.569-3.089c1.365-0.23,2.722-0.341,4.07-0.341c1.87,0,3.718,0.215,5.511,0.622
				c-6.274,1.96-11.962,4.54-17.019,7.729c-9.105,5.743-15.846,15.42-19.49,27.972c-1.024,3.558-2.859,6.903-5.444,9.958
				c-4.608,5.427-11.324,9.02-18.927,10.121c-18.292,2.648-36.039,12.783-50.044,23.143c0.299-3.56,1.359-7.109,3.244-10.408
				L225.855,259.699z M332.829,257.497l-33.971,45.295c-2.867,3.831-6.767,6.75-11.255,8.439l-41.182,15.437
				c-8.235,3.098-17.621,1.604-24.474-3.891l-5.299-4.241c-1.555-1.244-2.906-2.647-4.089-4.149
				c11.625-9.204,29.628-21.186,47.219-23.733c11.725-1.69,22.204-7.373,29.5-15.974c4.147-4.89,7.117-10.359,8.823-16.239
				c1.715-5.914,5.222-13.884,12.203-18.287c6.725-4.24,15.147-7.103,25.065-8.559c0.242,0.504,0.476,1.015,0.686,1.54
				C339.288,241.199,338.051,250.542,332.829,257.497z"/>
		</g>
	</g>
</g>
<g>
</g>
<g>
</g>
<g>
</g>
<g>
</g>
<g>
</g>
<g>
</g>
<g>
</g>
<g>
</g>
<g>
</g>
<g>
</g>
<g>
</g>
<g>
</g>
<g>
</g>
<g>
</g>
<g>
</g>
</svg>
