<?xml version="1.0" encoding="iso-8859-1"?>
<!-- Generator: Adobe Illustrator 19.0.0, SVG Export Plug-In . SVG Version: 6.00 Build 0)  -->
<svg version="1.1" id="Capa_1" xmlns="http://www.w3.org/2000/svg" xmlns:xlink="http://www.w3.org/1999/xlink" x="0px" y="0px"
	 viewBox="0 0 503.607 503.607" style="enable-background:new 0 0 503.607 503.607;" xml:space="preserve">
<g>
	<g>
		<g>
			<path d="M277.803,79.796l-18.331-41.237c-1.351-3.03-4.348-4.986-7.672-4.986c-3.315,0-6.32,1.956-7.672,4.986l-18.331,41.237
				c-10.415,23.442-10.103,49.946,0.766,73.078l-8.337,300.138c-0.067,2.887,1.343,5.615,3.743,7.218l3.206,2.132
				c7.915,5.103,17.081,7.663,26.347,7.663c9.3,0,18.692-2.568,27.027-7.739l3.089-2.056c2.401-1.603,3.811-4.331,3.735-7.218
				l-8.337-300.123C287.905,129.754,288.212,103.235,277.803,79.796z M260.428,159.477l0.932,33.572h-19.114l0.933-33.572H260.428z
				 M261.827,209.836l0.932,33.574h-21.912l0.933-33.574H261.827z M240.381,260.197h22.844l2.564,92.328h-27.974L240.381,260.197z
				 M237.348,369.311h28.906l0.932,33.574h-30.772L237.348,369.311z M241.14,86.612l10.66-23.98l10.66,23.98
				c7.965,17.945,8.184,38.106,0.739,56.077h-22.797C232.957,124.718,233.175,104.557,241.14,86.612z M235.139,448.807l0.81-29.135
				h31.704l0.808,29.102C257.961,454.784,245.068,454.767,235.139,448.807z"/>
			<path d="M377.705,0H125.902c-23.141,0-41.967,18.826-41.967,41.967v419.672c0,23.141,18.826,41.967,41.967,41.967h251.803
				c23.141,0,41.967-18.827,41.967-41.967V41.967C419.672,18.826,400.846,0,377.705,0z M402.885,461.639
				c0,13.883-11.298,25.18-25.18,25.18H125.902c-13.883,0-25.18-11.298-25.18-25.18V41.967c0-13.883,11.298-25.18,25.18-25.18
				h251.803c13.883,0,25.18,11.298,25.18,25.18V461.639z"/>
			<path d="M344.131,33.574c-23.141,0-41.967,18.826-41.967,41.967c0,23.141,18.826,41.967,41.967,41.967
				c23.141,0,41.967-18.826,41.967-41.967C386.098,52.4,367.272,33.574,344.131,33.574z M344.131,100.721
				c-13.883,0-25.18-11.298-25.18-25.18c0-13.883,11.298-25.18,25.18-25.18c13.883,0,25.18,11.298,25.18,25.18
				C369.311,89.424,358.014,100.721,344.131,100.721z"/>
			<path d="M344.131,151.082c-23.141,0-41.967,18.826-41.967,41.967c0,23.141,18.826,41.967,41.967,41.967
				c23.141,0,41.967-18.826,41.967-41.967C386.098,169.908,367.272,151.082,344.131,151.082z M344.131,218.229
				c-13.883,0-25.18-11.298-25.18-25.18s11.298-25.18,25.18-25.18c13.883,0,25.18,11.298,25.18,25.18
				S358.014,218.229,344.131,218.229z"/>
			<path d="M344.131,268.59c-23.141,0-41.967,18.826-41.967,41.967s18.826,41.967,41.967,41.967
				c23.141,0,41.967-18.826,41.967-41.967S367.272,268.59,344.131,268.59z M344.131,335.738c-13.883,0-25.18-11.298-25.18-25.18
				s11.298-25.18,25.18-25.18c13.883,0,25.18,11.298,25.18,25.18S358.014,335.738,344.131,335.738z"/>
			<path d="M344.131,386.098c-23.141,0-41.967,18.827-41.967,41.967c0,23.141,18.826,41.967,41.967,41.967
				c23.141,0,41.967-18.826,41.967-41.967C386.098,404.925,367.272,386.098,344.131,386.098z M344.131,453.246
				c-13.883,0-25.18-11.298-25.18-25.18s11.298-25.18,25.18-25.18c13.883,0,25.18,11.298,25.18,25.18
				S358.014,453.246,344.131,453.246z"/>
			<path d="M159.475,33.574c-23.141,0-41.967,18.826-41.967,41.967c0,23.141,18.827,41.967,41.967,41.967
				c23.141,0,41.967-18.826,41.967-41.967C201.443,52.4,182.616,33.574,159.475,33.574z M159.475,100.721
				c-13.883,0-25.18-11.298-25.18-25.18c0-13.883,11.298-25.18,25.18-25.18s25.18,11.298,25.18,25.18
				C184.656,89.424,173.358,100.721,159.475,100.721z"/>
			<path d="M159.475,151.082c-23.141,0-41.967,18.826-41.967,41.967c0,23.141,18.827,41.967,41.967,41.967
				c23.141,0,41.967-18.826,41.967-41.967C201.443,169.908,182.616,151.082,159.475,151.082z M159.475,218.229
				c-13.883,0-25.18-11.298-25.18-25.18s11.298-25.18,25.18-25.18s25.18,11.298,25.18,25.18S173.358,218.229,159.475,218.229z"/>
			<path d="M159.475,268.59c-23.141,0-41.967,18.826-41.967,41.967s18.827,41.967,41.967,41.967
				c23.141,0,41.967-18.826,41.967-41.967S182.616,268.59,159.475,268.59z M159.475,335.738c-13.883,0-25.18-11.298-25.18-25.18
				s11.298-25.18,25.18-25.18s25.18,11.298,25.18,25.18S173.358,335.738,159.475,335.738z"/>
			<path d="M159.475,386.098c-23.141,0-41.967,18.827-41.967,41.967c0,23.141,18.827,41.967,41.967,41.967
				c23.141,0,41.967-18.826,41.967-41.967C201.443,404.925,182.616,386.098,159.475,386.098z M159.475,453.246
				c-13.883,0-25.18-11.298-25.18-25.18s11.298-25.18,25.18-25.18s25.18,11.298,25.18,25.18S173.358,453.246,159.475,453.246z"/>
		</g>
	</g>
</g>
<g>
</g>
<g>
</g>
<g>
</g>
<g>
</g>
<g>
</g>
<g>
</g>
<g>
</g>
<g>
</g>
<g>
</g>
<g>
</g>
<g>
</g>
<g>
</g>
<g>
</g>
<g>
</g>
<g>
</g>
</svg>
