<?xml version="1.0" encoding="utf-8"?>
<!-- Generator: Adobe Illustrator 21.0.2, SVG Export Plug-In . SVG Version: 6.00 Build 0)  -->
<svg version="1.1" id="Capa_1" xmlns="http://www.w3.org/2000/svg" xmlns:xlink="http://www.w3.org/1999/xlink" x="0px" y="0px"
	 viewBox="0 0 18.6 19" style="enable-background:new 0 0 18.6 19;" xml:space="preserve">
<g>
	<g>
		<path d="M6.7,10.5c0-0.2-0.2-0.4-0.4-0.4H4.8c-0.2,0-0.4,0.2-0.4,0.4V12c0,0.2,0.2,0.4,0.4,0.4h1.5c0.2,0,0.4-0.2,0.4-0.4
			L6.7,10.5L6.7,10.5z"/>
		<path d="M10.5,10.5c0-0.2-0.2-0.4-0.4-0.4H8.5c-0.2,0-0.4,0.2-0.4,0.4V12c0,0.2,0.2,0.4,0.4,0.4H10c0.2,0,0.4-0.2,0.4-0.4V10.5z"
			/>
		<path d="M14.2,10.5c0-0.2-0.2-0.4-0.4-0.4h-1.5c-0.2,0-0.4,0.2-0.4,0.4V12c0,0.2,0.2,0.4,0.4,0.4h1.5c0.2,0,0.4-0.2,0.4-0.4V10.5z
			"/>
		<path d="M6.7,14.2c0-0.2-0.2-0.4-0.4-0.4H4.8c-0.2,0-0.4,0.2-0.4,0.4v1.5c0,0.2,0.2,0.4,0.4,0.4h1.5c0.2,0,0.4-0.2,0.4-0.4
			L6.7,14.2L6.7,14.2z"/>
		<path d="M10.5,14.2c0-0.2-0.2-0.4-0.4-0.4H8.5c-0.2,0-0.4,0.2-0.4,0.4v1.5c0,0.2,0.2,0.4,0.4,0.4H10c0.2,0,0.4-0.2,0.4-0.4V14.2z"
			/>
		<path d="M14.2,14.2c0-0.2-0.2-0.4-0.4-0.4h-1.5c-0.2,0-0.4,0.2-0.4,0.4v1.5c0,0.2,0.2,0.4,0.4,0.4h1.5c0.2,0,0.4-0.2,0.4-0.4
			L14.2,14.2L14.2,14.2z"/>
		<path d="M16.9,2.1v2.3c0,1-0.8,1.9-1.9,1.9h-1.2c-1,0-1.9-0.8-1.9-1.9V2.1H6.6v2.3c0,1-0.9,1.9-1.9,1.9H3.5c-1,0-1.9-0.8-1.9-1.9
			V2.1C0.7,2.1,0,2.9,0,3.8v13.5C0,18.2,0.8,19,1.7,19h15.2c0.9,0,1.7-0.8,1.7-1.7V3.8C18.6,2.9,17.8,2.1,16.9,2.1z M16.4,16.4
			c0,0.4-0.3,0.7-0.7,0.7H2.9c-0.4,0-0.7-0.3-0.7-0.7v-7c0-0.4,0.3-0.7,0.7-0.7h12.7c0.4,0,0.7,0.3,0.7,0.7L16.4,16.4L16.4,16.4z"/>
		<path d="M3.5,5.1h1.2c0.4,0,0.6-0.3,0.6-0.6V0.6C5.4,0.3,5.1,0,4.7,0H3.5C3.2,0,2.9,0.3,2.9,0.6v3.8C2.9,4.8,3.2,5.1,3.5,5.1z"/>
		<path d="M13.8,5.1H15c0.4,0,0.6-0.3,0.6-0.6V0.6C15.7,0.3,15.4,0,15,0h-1.2c-0.4,0-0.6,0.3-0.6,0.6v3.8
			C13.2,4.8,13.5,5.1,13.8,5.1z"/>
	</g>
</g>
</svg>
