<?xml version="1.0" encoding="utf-8"?>
<!-- Generator: Adobe Illustrator 21.0.2, SVG Export Plug-In . SVG Version: 6.00 Build 0)  -->
<svg version="1.1" xmlns="http://www.w3.org/2000/svg" xmlns:xlink="http://www.w3.org/1999/xlink" x="0px" y="0px"
	 viewBox="0 0 200 125" style="enable-background:new 0 0 200 125;" xml:space="preserve">
<style type="text/css">
	.st0{fill:#FFDD15;}
</style>
<g id="Слой_1">
	<rect x="29" y="22" class="st0" width="171" height="103"/>
	<g>
		<path d="M42.3,105.6V98c0-0.7,0.2-1.2,0.6-1.7c0.4-0.4,1-0.7,1.8-0.7c0.8,0,1.4,0.2,1.9,0.7s0.6,1,0.6,1.7c0,0.2,0,0.3-0.1,0.4
			c-0.1,0-0.3,0.1-0.5,0.1c-0.4,0-0.6-0.1-0.6-0.3c0-0.9-0.4-1.4-1.3-1.4c-0.4,0-0.7,0.1-0.9,0.4c-0.2,0.2-0.3,0.6-0.3,1v7.3
			c0,0.4,0.1,0.8,0.3,1c0.2,0.2,0.5,0.4,0.9,0.4c0.9,0,1.3-0.5,1.3-1.4c0-0.2,0.2-0.3,0.6-0.3c0.3,0,0.4,0,0.5,0.1
			c0.1,0,0.1,0.2,0.1,0.4c0,0.7-0.2,1.3-0.6,1.7c-0.4,0.4-1,0.6-1.9,0.6c-0.8,0-1.4-0.2-1.8-0.7C42.5,106.9,42.3,106.3,42.3,105.6z"
			/>
		<path d="M48.9,96.4c0-0.1,0-0.3,0-0.3s0-0.1,0.1-0.2c0,0,0.1-0.1,0.1-0.1c0,0,0.1,0,0.2,0h4.1c0.1,0,0.2,0,0.2,0
			c0,0,0.1,0,0.1,0.1c0,0,0.1,0.1,0.1,0.2s0,0.2,0,0.3c0,0.1,0,0.2,0,0.3c0,0.1,0,0.1-0.1,0.2c0,0-0.1,0.1-0.1,0.1c0,0-0.1,0-0.2,0
			h-1c-0.2,0-0.3,0-0.3,0.1c-0.1,0-0.1,0.1-0.1,0.3v10.1c0,0.1,0,0.2,0,0.2c0,0,0,0.1-0.1,0.1c0,0-0.1,0.1-0.2,0.1
			c-0.1,0-0.2,0-0.4,0c-0.2,0-0.3,0-0.4-0.1c-0.1,0-0.1-0.1-0.2-0.1c0,0,0-0.1,0-0.2V97.3c0-0.2,0-0.3-0.1-0.3s-0.1-0.1-0.3-0.1
			h-1.1c-0.1,0-0.2,0-0.2,0c0,0-0.1,0-0.1-0.1c0,0-0.1-0.1-0.1-0.2C48.9,96.6,48.9,96.5,48.9,96.4z"/>
		<path d="M55.2,96c0-0.1,0.2-0.2,0.5-0.2c0.3,0,0.5,0,0.5,0.1c0.1,0.1,0.2,0.2,0.2,0.3l1.1,3.8c0.1,0.3,0.2,0.5,0.2,0.5
			c0,0.1,0.1,0.1,0.1,0.1c0,0,0.1,0,0.1-0.1c0-0.1,0.1-0.3,0.2-0.5l1.2-3.8c0-0.1,0-0.2,0.1-0.2s0.1-0.1,0.2-0.1
			c0.1,0,0.2-0.1,0.4-0.1c0.3,0,0.5,0.1,0.5,0.2c0,0,0,0.1,0,0.2l-3.4,11.1c-0.1,0.1-0.1,0.2-0.1,0.3c0,0-0.1,0.1-0.2,0.1
			c-0.1,0-0.2,0.1-0.4,0.1c-0.3,0-0.5-0.1-0.5-0.2c0-0.1,0-0.1,0-0.2l1-3.3c0.1-0.5,0.2-0.8,0.2-1c0-0.2-0.1-0.5-0.2-1l-1.8-5.9
			C55.2,96.1,55.2,96,55.2,96z"/>
		<path d="M62.1,107.1c0-0.1,0-0.2,0-0.2s0.1-0.1,0.2-0.1s0.2-0.1,0.4-0.1c0.4,0,0.7-0.1,0.8-0.3c0.1-0.2,0.2-0.5,0.2-1.1v-9.1
			c0-0.1,0-0.2,0-0.2c0,0,0-0.1,0.1-0.1c0,0,0.1-0.1,0.2-0.1c0.1,0,0.2,0,0.3,0H68c0.2,0,0.3,0,0.4,0c0.1,0,0.1,0,0.2,0.1
			c0,0,0.1,0.1,0.1,0.1c0,0,0,0.1,0,0.2v10.1c0,0.2,0,0.3,0.1,0.3c0.1,0,0.2,0.1,0.3,0.1h0.2c0.2,0,0.3,0,0.4,0.1s0.1,0.1,0.2,0.1
			s0,0.1,0,0.2v2.1c0,0.1,0,0.2,0,0.2c0,0,0,0.1-0.1,0.1c0,0-0.1,0.1-0.2,0.1c-0.1,0-0.2,0-0.4,0c-0.2,0-0.3,0-0.4-0.1
			c-0.1,0-0.1-0.1-0.2-0.1c0,0,0-0.1,0-0.3v-1.2c0-0.2-0.1-0.2-0.4-0.2h-4.6c-0.1,0-0.2,0-0.3,0.1c-0.1,0-0.1,0.1-0.1,0.2v1.1
			c0,0.1,0,0.2,0,0.2c0,0,0,0.1-0.1,0.1c0,0-0.1,0.1-0.2,0.1c-0.1,0-0.2,0-0.4,0c-0.2,0-0.3,0-0.4-0.1c-0.1,0-0.1-0.1-0.2-0.1
			c0,0,0-0.1,0-0.3V107.1z M64.5,106.6c0,0,0,0,0.1,0h2.4c0.2,0,0.3,0,0.3-0.1s0.1-0.1,0.1-0.3v-9.1c0-0.2-0.1-0.2-0.4-0.2h-1.8
			c-0.1,0-0.2,0-0.3,0.1c-0.1,0-0.1,0.1-0.1,0.2v7.9c0,0.3,0,0.6-0.1,0.8c0,0.2-0.1,0.4-0.2,0.5c0,0,0,0,0,0
			C64.6,106.5,64.5,106.6,64.5,106.6C64.5,106.6,64.5,106.6,64.5,106.6z"/>
		<path d="M71.4,107.2c0-0.1,0-0.2,0-0.3s0-0.1,0.1-0.2c0,0,0.1-0.1,0.1-0.1c0,0,0.1,0,0.2,0h0.2c0.2,0,0.3,0,0.3-0.1
			s0.1-0.1,0.1-0.3v-9c0-0.2,0-0.3-0.1-0.3s-0.1-0.1-0.3-0.1h-0.2c-0.1,0-0.2,0-0.2,0c0,0-0.1,0-0.1-0.1c0,0-0.1-0.1-0.1-0.2
			c0-0.1,0-0.2,0-0.3c0-0.1,0-0.3,0-0.3s0-0.1,0.1-0.2c0,0,0.1-0.1,0.1-0.1c0,0,0.1,0,0.2,0h2.4c0.1,0,0.2,0,0.2,0
			c0,0,0.1,0,0.1,0.1c0,0,0.1,0.1,0.1,0.2s0,0.2,0,0.3c0,0.1,0,0.2,0,0.3c0,0.1,0,0.1-0.1,0.2c0,0-0.1,0.1-0.1,0.1c0,0-0.1,0-0.2,0
			H74c-0.2,0-0.3,0-0.3,0.1s-0.1,0.1-0.1,0.3v9c0,0.2,0,0.3,0.1,0.3s0.1,0.1,0.3,0.1h0.2c0.1,0,0.2,0,0.2,0c0,0,0.1,0,0.1,0.1
			c0,0,0.1,0.1,0.1,0.2s0,0.2,0,0.3c0,0.2,0,0.3-0.1,0.4c0,0.1-0.1,0.1-0.1,0.1c0,0-0.1,0-0.2,0h-2.4c-0.1,0-0.2,0-0.2,0
			c0,0-0.1-0.1-0.1-0.1C71.4,107.6,71.4,107.4,71.4,107.2z"/>
		<path d="M76.6,100v-1.8c0-0.3,0-0.6,0-0.8s0.1-0.4,0.2-0.6c0.1-0.2,0.2-0.4,0.3-0.5c0.1-0.1,0.3-0.2,0.6-0.3
			c0.2-0.1,0.5-0.1,0.9-0.1h2.5c0.1,0,0.2,0,0.2,0c0,0,0.1,0.1,0.1,0.1c0,0.1,0.1,0.2,0.1,0.4v11c0,0.1,0,0.2,0,0.2
			c0,0-0.1,0.1-0.2,0.1c-0.1,0-0.2,0.1-0.4,0.1c-0.2,0-0.3,0-0.4,0c-0.1,0-0.1,0-0.2-0.1c0,0-0.1-0.1-0.1-0.1c0,0,0-0.1,0-0.2v-4.7
			c0-0.1,0-0.2-0.1-0.3c-0.1-0.1-0.1-0.1-0.2-0.1c-0.1,0-0.1,0-0.2,0.1s-0.1,0.2-0.2,0.3l-1.7,4.7c0,0.1-0.1,0.2-0.1,0.2
			c0,0.1-0.1,0.1-0.2,0.1c-0.1,0-0.2,0.1-0.4,0.1c-0.3,0-0.5-0.1-0.5-0.2c0-0.1,0-0.2,0.1-0.2l1.8-4.8c0.1-0.2,0.1-0.2,0.1-0.2
			c0-0.1-0.1-0.1-0.2-0.1c-0.3,0-0.6,0-0.8-0.1c-0.2-0.1-0.4-0.2-0.5-0.3s-0.2-0.3-0.3-0.5s-0.1-0.4-0.1-0.6
			C76.6,100.6,76.6,100.3,76.6,100z M77.8,99.7c0,0.3,0,0.5,0,0.6c0,0.1,0,0.3,0.1,0.4c0,0.1,0.1,0.2,0.2,0.3s0.2,0.1,0.3,0.1
			s0.3,0.1,0.5,0.1h1.1c0.2,0,0.3,0,0.3-0.1c0,0,0.1-0.1,0.1-0.3v-3.5c0-0.2,0-0.3-0.1-0.3s-0.1-0.1-0.3-0.1h-1.1
			c-0.2,0-0.4,0-0.5,0.1s-0.2,0.1-0.3,0.1s-0.1,0.2-0.2,0.3c0,0.1-0.1,0.3-0.1,0.4c0,0.1,0,0.3,0,0.6V99.7z"/>
		<path d="M89.1,107.6c0-0.1,0-0.2,0.1-0.2l2-4.8c0.2-0.4,0.2-0.6,0.2-0.8c0-0.1-0.1-0.4-0.2-0.7l-2-4.8c0-0.1-0.1-0.2-0.1-0.3
			c0-0.1,0.2-0.2,0.5-0.2c0.3,0,0.4,0,0.5,0.1c0.1,0.1,0.2,0.2,0.2,0.3l1.7,4.2c0.1,0.2,0.1,0.2,0.1,0.3s0.1,0.1,0.1,0.1
			c0.1,0,0.1-0.1,0.1-0.3v-4.2c0-0.1,0-0.2,0-0.3c0,0,0.1-0.1,0.2-0.1c0.1,0,0.2-0.1,0.4-0.1c0.2,0,0.3,0,0.4,0c0.1,0,0.1,0,0.2,0.1
			c0,0,0.1,0.1,0.1,0.1c0,0,0,0.1,0,0.2v4.2c0,0.2,0,0.3,0.1,0.3c0,0,0,0,0.1,0c0,0,0,0,0.1-0.1c0-0.1,0.1-0.1,0.1-0.2l1.8-4.2
			c0-0.1,0.1-0.2,0.1-0.2c0-0.1,0.1-0.1,0.2-0.1c0.1,0,0.2-0.1,0.4-0.1c0.3,0,0.5,0.1,0.5,0.2c0,0.1,0,0.1-0.1,0.3l-2,4.8
			c-0.2,0.4-0.2,0.6-0.2,0.7c0,0.1,0.1,0.4,0.2,0.8l2,4.8c0,0.1,0.1,0.2,0.1,0.2c0,0.1-0.2,0.2-0.5,0.2c-0.3,0-0.4,0-0.5-0.1
			c-0.1-0.1-0.2-0.2-0.2-0.3l-1.8-4.2c-0.1-0.2-0.1-0.2-0.1-0.3c0,0-0.1-0.1-0.1-0.1c-0.1,0-0.1,0.1-0.1,0.3v4.2c0,0.1,0,0.2,0,0.2
			c0,0,0,0.1-0.1,0.1c0,0-0.1,0.1-0.2,0.1c-0.1,0-0.2,0-0.4,0c-0.2,0-0.3,0-0.4-0.1c-0.1,0-0.1-0.1-0.2-0.1c0,0,0-0.1,0-0.2v-4.2
			c0-0.2,0-0.3-0.1-0.3c0,0,0,0-0.1,0s0,0-0.1,0.1c0,0.1-0.1,0.1-0.1,0.2l-1.7,4.2c0,0.1-0.1,0.2-0.1,0.2c0,0.1-0.1,0.1-0.2,0.1
			c-0.1,0-0.3,0.1-0.4,0.1C89.3,107.8,89.1,107.8,89.1,107.6z"/>
		<path d="M99,107.4V96.2c0-0.1,0-0.2,0-0.2c0,0,0-0.1,0.1-0.1c0,0,0.1-0.1,0.2-0.1c0.1,0,0.2,0,0.4,0c0.2,0,0.3,0,0.4,0.1
			c0.1,0,0.1,0.1,0.2,0.1c0,0,0,0.1,0,0.3v6.8c0,0.2,0,0.3,0,0.3c0,0.1,0,0.1,0.1,0.1c0.1,0,0.1-0.1,0.2-0.4l2.1-6.8
			c0-0.1,0.1-0.2,0.1-0.3c0,0,0.1-0.1,0.2-0.1c0.1,0,0.3-0.1,0.5-0.1c0.2,0,0.3,0,0.4,0.1c0.1,0,0.1,0.1,0.2,0.1c0,0,0,0.1,0,0.3
			v11.1c0,0.1,0,0.2,0,0.2c0,0-0.1,0.1-0.2,0.1c-0.1,0-0.2,0.1-0.4,0.1c-0.2,0-0.3,0-0.4,0c-0.1,0-0.1,0-0.2-0.1
			c0,0-0.1-0.1-0.1-0.1c0,0,0-0.1,0-0.2v-6.7c0-0.1,0-0.2,0-0.3s0-0.1-0.1-0.1c-0.1,0-0.2,0.1-0.2,0.4l-2.1,6.7
			c0,0.2-0.1,0.3-0.2,0.3c-0.1,0.1-0.3,0.1-0.5,0.1c-0.3,0-0.5,0-0.6-0.1C99,107.7,99,107.5,99,107.4z"/>
		<path d="M106.4,107.2V96.4c0-0.1,0-0.3,0-0.3c0-0.1,0-0.1,0.1-0.2c0,0,0.1-0.1,0.1-0.1c0,0,0.1,0,0.2,0h2.5c0.4,0,0.8,0,1,0.1
			c0.3,0.1,0.5,0.2,0.6,0.5c0.1,0.2,0.2,0.4,0.3,0.7c0,0.3,0.1,0.6,0.1,1v1.8c0,0.5,0,0.8-0.1,1.1c-0.1,0.3-0.2,0.5-0.4,0.7
			c0.2,0.2,0.3,0.4,0.4,0.7c0.1,0.3,0.1,0.6,0.1,1.1v2c0,0.4,0,0.8-0.1,1c0,0.3-0.1,0.5-0.3,0.7c-0.1,0.2-0.3,0.4-0.6,0.5
			c-0.3,0.1-0.6,0.1-1,0.1h-2.5c-0.1,0-0.2,0-0.2,0c0,0-0.1-0.1-0.1-0.1C106.4,107.6,106.4,107.4,106.4,107.2z M107.6,100.8
			c0,0.1,0,0.2,0.1,0.3c0,0.1,0.1,0.1,0.2,0.1h1.3c0.4,0,0.6-0.1,0.7-0.3c0.1-0.2,0.2-0.6,0.2-1.2v-1.2c0-0.3,0-0.5,0-0.6
			s0-0.3-0.1-0.4c0-0.1-0.1-0.2-0.2-0.3c-0.1-0.1-0.2-0.1-0.3-0.1s-0.3-0.1-0.5-0.1H108c-0.2,0-0.3,0-0.3,0.1s-0.1,0.1-0.1,0.3
			V100.8z M107.6,106.3c0,0.2,0,0.3,0.1,0.3s0.1,0.1,0.3,0.1h1.1c0.1,0,0.3,0,0.4,0c0.1,0,0.2,0,0.3-0.1c0.1,0,0.1-0.1,0.2-0.1
			c0-0.1,0.1-0.1,0.1-0.2c0-0.1,0.1-0.2,0.1-0.3c0-0.1,0-0.2,0-0.4c0-0.1,0-0.3,0-0.5v-1.4c0-0.6,0-1-0.2-1.2
			c-0.1-0.2-0.3-0.3-0.7-0.3H108c-0.2,0-0.3,0-0.3,0.1c0,0.1-0.1,0.2-0.1,0.3V106.3z"/>
		<path d="M113.6,105.6V98c0-0.7,0.2-1.2,0.6-1.7c0.4-0.4,1-0.7,1.8-0.7c0.8,0,1.4,0.2,1.9,0.7c0.4,0.4,0.6,1,0.6,1.7v7.6
			c0,0.7-0.2,1.3-0.6,1.7c-0.4,0.4-1,0.7-1.9,0.7c-0.8,0-1.4-0.2-1.8-0.7C113.8,106.9,113.6,106.3,113.6,105.6z M114.8,105.5
			c0,0.4,0.1,0.8,0.3,1c0.2,0.2,0.5,0.4,0.9,0.4c0.9,0,1.3-0.5,1.3-1.4v-7.3c0-0.9-0.4-1.4-1.3-1.4c-0.4,0-0.7,0.1-0.9,0.4
			c-0.2,0.2-0.3,0.6-0.3,1V105.5z"/>
		<path d="M121,107.4V96.2c0-0.1,0-0.2,0-0.3c0,0,0.1-0.1,0.2-0.1c0.1,0,0.2-0.1,0.4-0.1h3.8c0.2,0,0.3,0,0.4,0c0.1,0,0.1,0,0.2,0.1
			c0,0,0.1,0.1,0.1,0.1c0,0,0,0.1,0,0.2v11.1c0,0.1,0,0.2,0,0.2c0,0,0,0.1-0.1,0.1c0,0-0.1,0.1-0.2,0.1c-0.1,0-0.2,0-0.4,0
			c-0.2,0-0.3,0-0.4-0.1c-0.1,0-0.1-0.1-0.2-0.1c0,0,0-0.1,0-0.2V97.2c0-0.2-0.1-0.2-0.4-0.2h-1.8c-0.1,0-0.2,0-0.3,0.1
			c-0.1,0-0.1,0.1-0.1,0.2v10.1c0,0.1,0,0.2,0,0.2c0,0,0,0.1-0.1,0.1c0,0-0.1,0.1-0.2,0.1c-0.1,0-0.2,0-0.4,0c-0.2,0-0.3,0-0.4-0.1
			c-0.1,0-0.1-0.1-0.2-0.1C121,107.6,121,107.5,121,107.4z"/>
		<path d="M128.4,107.4V96.2c0-0.1,0-0.2,0-0.2c0,0,0-0.1,0.1-0.1c0,0,0.1-0.1,0.2-0.1c0.1,0,0.2,0,0.4,0c0.2,0,0.3,0,0.4,0.1
			c0.1,0,0.1,0.1,0.2,0.1c0,0,0,0.1,0,0.3v6.8c0,0.2,0,0.3,0,0.3c0,0.1,0,0.1,0.1,0.1c0.1,0,0.1-0.1,0.2-0.4l2.1-6.8
			c0-0.1,0.1-0.2,0.1-0.3c0,0,0.1-0.1,0.2-0.1c0.1,0,0.3-0.1,0.5-0.1c0.2,0,0.3,0,0.4,0.1c0.1,0,0.1,0.1,0.2,0.1c0,0,0,0.1,0,0.3
			v11.1c0,0.1,0,0.2,0,0.2c0,0-0.1,0.1-0.2,0.1c-0.1,0-0.2,0.1-0.4,0.1c-0.2,0-0.3,0-0.4,0c-0.1,0-0.1,0-0.2-0.1
			c0,0-0.1-0.1-0.1-0.1c0,0,0-0.1,0-0.2v-6.7c0-0.1,0-0.2,0-0.3s0-0.1-0.1-0.1c-0.1,0-0.2,0.1-0.2,0.4l-2.1,6.7
			c0,0.2-0.1,0.3-0.2,0.3c-0.1,0.1-0.3,0.1-0.5,0.1c-0.3,0-0.5,0-0.6-0.1C128.4,107.7,128.4,107.5,128.4,107.4z"/>
		<path d="M135.7,105.6V98c0-0.7,0.2-1.2,0.6-1.7c0.4-0.4,1-0.7,1.8-0.7c0.8,0,1.4,0.2,1.9,0.7c0.4,0.4,0.6,1,0.6,1.7
			c0,0.2,0,0.3-0.1,0.4c-0.1,0-0.3,0.1-0.5,0.1c-0.4,0-0.6-0.1-0.6-0.3c0-0.9-0.4-1.4-1.3-1.4c-0.4,0-0.7,0.1-0.9,0.4
			c-0.2,0.2-0.3,0.6-0.3,1v7.3c0,0.4,0.1,0.8,0.3,1c0.2,0.2,0.5,0.4,0.9,0.4c0.9,0,1.3-0.5,1.3-1.4c0-0.2,0.2-0.3,0.6-0.3
			c0.3,0,0.4,0,0.5,0.1c0.1,0,0.1,0.2,0.1,0.4c0,0.7-0.2,1.3-0.6,1.7c-0.4,0.4-1,0.6-1.9,0.6c-0.8,0-1.4-0.2-1.8-0.7
			C135.9,106.9,135.7,106.3,135.7,105.6z"/>
		<path d="M142.3,96c0-0.1,0.2-0.2,0.5-0.2c0.3,0,0.5,0,0.5,0.1c0.1,0.1,0.2,0.2,0.2,0.3l1.1,3.8c0.1,0.3,0.2,0.5,0.2,0.5
			c0,0.1,0.1,0.1,0.1,0.1c0,0,0.1,0,0.1-0.1c0-0.1,0.1-0.3,0.2-0.5l1.2-3.8c0-0.1,0-0.2,0.1-0.2s0.1-0.1,0.2-0.1
			c0.1,0,0.2-0.1,0.4-0.1c0.3,0,0.5,0.1,0.5,0.2c0,0,0,0.1,0,0.2l-3.4,11.1c-0.1,0.1-0.1,0.2-0.1,0.3c0,0-0.1,0.1-0.2,0.1
			c-0.1,0-0.2,0.1-0.4,0.1c-0.3,0-0.5-0.1-0.5-0.2c0-0.1,0-0.1,0-0.2l1-3.3c0.1-0.5,0.2-0.8,0.2-1c0-0.2-0.1-0.5-0.2-1l-1.8-5.9
			C142.3,96.1,142.3,96,142.3,96z"/>
	</g>
</g>
<g id="Слой_2">
	<g>
		<path d="M42.4,10.2l0.2-10.1h30.1l0.1,10.1h-1.5c-0.4-3-1.4-5.1-2.8-6.4c-1.5-1.3-3.7-2-6.8-2.1v26.5c0,1.9,0.3,3.1,0.8,3.6
			c0.6,0.5,1.9,0.8,4.1,1V34H48.7v-1.2c2.1-0.2,3.5-0.5,4-1c0.6-0.5,0.8-1.7,0.8-3.6V1.6c-3.1,0.1-5.4,0.8-6.8,2.1
			c-1.5,1.3-2.4,3.4-2.8,6.4H42.4z"/>
		<path d="M77.2,1.3V0.1h9.7v14c2.2-2.6,4.6-3.9,7.4-3.9c2,0,3.6,0.6,4.8,1.9c1.2,1.3,1.8,2.9,1.8,4.9v12.5c0,1.1,0.2,2,0.6,2.4
			c0.4,0.5,1,0.7,1.9,0.7V34H91.5v-1.2c0.8-0.1,1.4-0.4,1.8-0.8s0.5-1.2,0.5-2.2V18.5c0-1.8-0.2-3.1-0.5-3.8c-0.4-0.7-1-1.1-2-1.1
			c-1.2,0-2.4,0.6-3.5,1.7c-0.6,0.6-0.9,1-0.9,1.2v13.2c0,1,0.2,1.7,0.5,2.2c0.3,0.4,1,0.7,1.9,0.9V34h-12v-1.2
			c1.2-0.2,1.9-0.5,2.2-0.8c0.3-0.3,0.4-1.1,0.4-2.4V4.4c0-1.2-0.2-1.9-0.5-2.2C79.2,1.8,78.4,1.6,77.2,1.3z"/>
		<path d="M107.8,22.8c0-3.7,0.9-6.8,2.8-9.1c1.9-2.3,4.4-3.4,7.4-3.4c2.8,0,4.9,0.8,6.4,2.5c1.8,1.9,2.8,4.9,3,8.9h-12.7
			c0.1,1.4,0.2,2.6,0.4,3.5c0.2,1,0.5,1.9,0.9,2.9c0.4,1,1,1.7,1.8,2.2c0.8,0.5,1.8,0.7,3,0.7c1.1,0,2-0.3,2.9-0.8
			c0.9-0.5,1.8-1.4,2.8-2.6l1.2,0.7c-1.5,2.3-2.9,4-4.4,4.9c-1.5,0.9-3.3,1.4-5.5,1.4c-2.9,0-5.3-1.1-7.2-3.4
			C108.7,29.1,107.8,26.2,107.8,22.8z M114.5,20h6.7v-1.1c0-2.5-0.1-4.1-0.4-4.7c-0.4-0.9-0.8-1.5-1.2-1.8c-0.4-0.4-0.9-0.6-1.6-0.6
			c-1.2,0-2.1,0.6-2.7,1.9C114.8,14.9,114.5,17,114.5,20z"/>
	</g>
	<g>
		<path d="M0.1,76.8v-1.2c1.8-0.2,3-0.6,3.6-1.1C4.2,74,4.5,73,4.5,71.6V47.9c0-1.4-0.3-2.4-0.9-2.9c-0.6-0.5-1.8-0.8-3.5-0.9v-1.2
			h28.4V53h-1.2c-0.3-1.9-0.7-3.3-1.1-4.1c-0.4-0.8-1-1.6-1.9-2.4c-1.5-1.3-4.2-2-8.2-2c-1.3,0-2.2,0.2-2.7,0.6
			c-0.5,0.4-0.8,1-0.8,2v11.4c2.5,0,4.3-0.5,5.5-1.6c1.1-1.1,1.9-3,2.2-5.9h1.2v17h-1.2c-0.2-2.9-0.9-4.9-2-6
			c-1.1-1.1-3-1.7-5.6-1.8v11.4c0,1.4,0.4,2.4,1.1,2.9c0.7,0.5,2.2,0.8,4.5,0.9v1.2H0.1z"/>
		<path d="M31.4,65.3c0-3.7,1-6.6,3.1-8.9c2.1-2.3,4.7-3.4,8-3.4c3.1,0,5.6,1.2,7.7,3.5c2.1,2.3,3.1,5.2,3.1,8.8
			c0,3.5-1,6.4-3.1,8.7c-2.1,2.3-4.7,3.5-7.8,3.5c-3.1,0-5.7-1.1-7.8-3.4C32.5,71.7,31.4,68.8,31.4,65.3z M38.4,65.8
			c0,3.6,0.3,6.2,0.9,7.8c0.6,1.5,1.6,2.3,3.1,2.3s2.4-0.7,3-2.2c0.6-1.5,0.9-4.1,0.9-7.8c0-4.3-0.3-7.2-0.9-8.9s-1.6-2.4-3.1-2.4
			c-1.5,0-2.6,0.8-3.1,2.4C38.7,58.5,38.4,61.5,38.4,65.8z"/>
		<path d="M58.9,54.9v-1.2h9.5v4.1c1.2-1.7,2.3-2.9,3.3-3.6s2.2-1.1,3.5-1.1c1.2,0,2.1,0.4,2.9,1.1c0.8,0.8,1.1,1.7,1.1,2.8
			c0,1-0.3,1.8-0.9,2.4c-0.6,0.6-1.3,0.9-2.3,0.9c-1.2,0-2.2-0.6-3-1.9c-0.5-0.8-0.9-1.2-1.4-1.2c-0.9,0-1.6,0.5-2.2,1.5
			c-0.6,1-0.9,2.2-0.9,3.7v8.9c0,1.6,0.2,2.6,0.7,3.2c0.4,0.5,1.4,0.8,2.9,0.9v1.2H58.9v-1.2c1.1-0.2,1.9-0.5,2.2-0.9
			c0.4-0.4,0.5-1.1,0.5-2.1V58.1c0-1.2-0.2-2-0.6-2.4C60.7,55.3,60,55,58.9,54.9z"/>
		<path d="M83,54.9v-1.2h9.6v3.7h0.2c1-1.5,2-2.6,3.1-3.3c1.1-0.7,2.5-1,4.1-1c1.6,0,2.9,0.3,3.8,1c1,0.7,1.8,1.8,2.6,3.4
			c1.3-1.6,2.5-2.7,3.6-3.4c1.1-0.7,2.3-1,3.8-1c2.1,0,3.7,0.6,5,1.9s1.8,3,1.8,5.2v12.4c0,1.1,0.2,1.8,0.5,2.3c0.3,0.4,1,0.7,2,0.7
			v1.2h-11.9v-1.2c0.9-0.1,1.6-0.3,1.9-0.7c0.3-0.4,0.5-1.2,0.5-2.2V61.1c0-3.2-0.9-4.7-2.6-4.7h0c-1,0-1.9,0.4-2.9,1.2
			c-0.3,0.2-0.6,0.5-0.9,0.9c-0.3,0.4-0.5,0.6-0.5,0.7v13.3c0,1,0.2,1.7,0.5,2.1s0.9,0.7,1.8,0.8v1.2H97.3v-1.2
			c0.9-0.1,1.5-0.3,1.9-0.7c0.3-0.4,0.5-1.2,0.5-2.2v-12c0-1.5-0.2-2.6-0.6-3.2S98,56.4,97,56.4c-0.6,0-1.5,0.4-2.6,1.1
			c-1.1,0.8-1.6,1.4-1.6,1.9v13.1c0,1,0.2,1.7,0.5,2.1s0.9,0.7,1.8,0.9v1.2H83v-1.2c1.1-0.2,1.8-0.5,2.2-0.9s0.5-1.1,0.5-2.2V58.1
			c0-1.2-0.2-2-0.5-2.4S84.1,55,83,54.9z"/>
		<path d="M127.4,72.2c0-2.2,1.1-4.1,3.3-5.6c1.6-1.1,4.9-2.4,9.9-3.8v-3.4c0-1.6-0.3-2.8-0.9-3.5c-0.6-0.7-1.7-1.1-3.1-1.1
			c-0.8,0-1.6,0.2-2.1,0.5c-0.6,0.3-0.9,0.8-0.9,1.3c0,0.4,0.2,0.8,0.6,1.2c0.6,0.7,0.9,1.4,0.9,2c0,0.9-0.3,1.6-0.9,2.2
			c-0.6,0.6-1.5,0.9-2.5,0.9c-1,0-1.8-0.3-2.4-0.9c-0.6-0.6-0.8-1.4-0.8-2.5c0-2,0.9-3.5,2.6-4.6c1.7-1.1,3.9-1.7,6.7-1.7
			c3.1,0,5.5,0.6,7.3,1.8c1.8,1.2,2.6,2.9,2.6,5v13c0,0.9,0.4,1.4,1.1,1.4c0.2,0,0.4-0.1,0.5-0.2l0.5-0.5l0.7,1.1
			c-1.8,1.9-3.7,2.9-5.6,2.9c-1.3,0-2.2-0.3-2.8-0.8s-1.1-1.4-1.3-2.7c-2.5,2.3-5.1,3.5-7.8,3.5c-1.6,0-2.9-0.4-3.9-1.3
			S127.4,73.9,127.4,72.2z M134.4,70.5c0,1.1,0.2,1.9,0.7,2.5c0.5,0.6,1.1,0.9,1.9,0.9c1.4,0,2.6-0.7,3.5-2v-7.4
			C136.4,65.6,134.4,67.6,134.4,70.5z"/>
		<path d="M154.4,55.8v-1.3c1.6-1.1,3-2.3,4.1-3.6s2.5-3.2,4.3-5.7h1.3v8.5h4.8v2.2H164v15c0,2,0.7,3,2,3h0c1,0,1.9-0.9,2.8-2.6
			l1.2,0.5c-1,2.1-2.1,3.5-3.2,4.4c-1.1,0.9-2.5,1.3-4.2,1.3c-1.7,0-3.1-0.5-4.1-1.4c-1-1-1.5-2.3-1.5-3.9V55.8H154.4z"/>
	</g>
	<g>
	</g>
	<g>
	</g>
	<g>
	</g>
	<g>
	</g>
	<g>
	</g>
	<g>
	</g>
	<g>
	</g>
	<g>
	</g>
	<g>
	</g>
	<g>
	</g>
	<g>
	</g>
	<g>
	</g>
	<g>
	</g>
	<g>
	</g>
	<g>
	</g>
</g>
</svg>
