<?xml version="1.0" encoding="iso-8859-1"?>
<!-- Generator: Adobe Illustrator 18.0.0, SVG Export Plug-In . SVG Version: 6.00 Build 0)  -->
<!DOCTYPE svg PUBLIC "-//W3C//DTD SVG 1.1//EN" "http://www.w3.org/Graphics/SVG/1.1/DTD/svg11.dtd">
<svg version="1.1" id="Capa_1" xmlns="http://www.w3.org/2000/svg" xmlns:xlink="http://www.w3.org/1999/xlink" x="0px" y="0px"
	 viewBox="0 0 408.061 408.061" style="enable-background:new 0 0 408.061 408.061;" xml:space="preserve">
<path d="M384.667,32.959c-15.11-15.11-35.2-23.432-56.569-23.432c-21.368,0-41.458,8.322-56.568,23.432L19.446,285.042
	c-25.928,25.928-25.928,68.117,0,94.045c12.965,12.964,29.994,19.446,47.022,19.446c17.029,0,34.059-6.482,47.023-19.446
	l222.386-222.385c20.273-20.275,20.273-53.264-0.001-73.539c-9.821-9.822-22.88-15.23-36.77-15.23s-26.948,5.409-36.77,15.23
	L122.33,223.171l9.9,9.899L272.238,93.063c7.177-7.177,16.719-11.13,26.869-11.13s19.693,3.953,26.87,11.13
	c14.816,14.816,14.816,38.924,0,53.74L103.592,369.188c-20.47,20.468-53.776,20.469-74.246,0c-20.471-20.47-20.471-53.777,0-74.247
	L281.43,42.858c12.465-12.466,29.039-19.331,46.668-19.331s34.203,6.865,46.669,19.331c25.733,25.733,25.733,67.605,0,93.338
	L205.061,305.902l9.9,9.899l169.706-169.706C415.859,114.904,415.859,64.151,384.667,32.959z"/>
<g>
</g>
<g>
</g>
<g>
</g>
<g>
</g>
<g>
</g>
<g>
</g>
<g>
</g>
<g>
</g>
<g>
</g>
<g>
</g>
<g>
</g>
<g>
</g>
<g>
</g>
<g>
</g>
<g>
</g>
</svg>
