<?xml version="1.0" encoding="utf-8"?>
<!-- Generator: Adobe Illustrator 21.0.2, SVG Export Plug-In . SVG Version: 6.00 Build 0)  -->
<svg version="1.1" id="Слой_1" xmlns="http://www.w3.org/2000/svg" xmlns:xlink="http://www.w3.org/1999/xlink" x="0px" y="0px"
	 viewBox="0 0 25 25" style="enable-background:new 0 0 25 25;" xml:space="preserve">
<g>
	<path fill='white' d="M18.5,0l-3.2,0c-3.6,0-6,2.4-6,6.2V9H6C5.8,9,5.5,9.2,5.5,9.5v4.1c0,0.3,0.2,0.5,0.5,0.5h3.3v10.4c0,0.3,0.2,0.5,0.5,0.5
		h4.3c0.3,0,0.5-0.2,0.5-0.5V14.1h3.8c0.3,0,0.5-0.2,0.5-0.5l0-4.1c0-0.1-0.1-0.3-0.1-0.4S18.5,9,18.4,9h-3.8V6.6
		c0-1.2,0.3-1.7,1.8-1.7l2.2,0c0.3,0,0.5-0.2,0.5-0.5V0.5C19,0.2,18.8,0,18.5,0z"/>
</g>
<g>
</g>
<g>
</g>
<g>
</g>
<g>
</g>
<g>
</g>
<g>
</g>
<g>
</g>
<g>
</g>
<g>
</g>
<g>
</g>
<g>
</g>
<g>
</g>
<g>
</g>
<g>
</g>
<g>
</g>
</svg>
