<?xml version="1.0" encoding="utf-8"?>
<!-- Generator: Adobe Illustrator 21.0.2, SVG Export Plug-In . SVG Version: 6.00 Build 0)  -->
<svg version="1.1" id="Capa_1" xmlns="http://www.w3.org/2000/svg" xmlns:xlink="http://www.w3.org/1999/xlink" x="0px" y="0px"
	 viewBox="0 0 25 25" style="enable-background:new 0 0 25 25;" xml:space="preserve">
<g>
	<path d="M24.1,0.9C23.4,0.3,22.7,0,21.8,0H3.2C2.3,0,1.6,0.3,0.9,0.9C0.3,1.6,0,2.3,0,3.2v18.6c0,0.9,0.3,1.6,0.9,2.3
		C1.6,24.7,2.3,25,3.2,25h18.6c0.9,0,1.6-0.3,2.3-0.9c0.6-0.6,0.9-1.4,0.9-2.3V3.2C25,2.3,24.7,1.6,24.1,0.9z M9,9
		c1-0.9,2.2-1.4,3.5-1.4c1.4,0,2.6,0.5,3.6,1.4c1,0.9,1.5,2.1,1.5,3.4c0,1.3-0.5,2.5-1.5,3.4c-1,0.9-2.2,1.4-3.6,1.4
		c-1.4,0-2.6-0.5-3.5-1.4c-1-0.9-1.5-2.1-1.5-3.4C7.5,11.1,8,10,9,9z M22.2,21.1c0,0.3-0.1,0.5-0.3,0.7c-0.2,0.2-0.4,0.3-0.7,0.3
		H3.8c-0.3,0-0.5-0.1-0.7-0.3c-0.2-0.2-0.3-0.4-0.3-0.7V10.6h2.3c-0.2,0.7-0.3,1.4-0.3,2.1c0,2.1,0.8,3.9,2.3,5.3
		c1.5,1.5,3.3,2.2,5.5,2.2c1.4,0,2.7-0.3,3.9-1c1.2-0.7,2.1-1.6,2.8-2.7c0.7-1.2,1-2.4,1-3.8c0-0.7-0.1-1.4-0.3-2.1h2.2L22.2,21.1
		L22.2,21.1L22.2,21.1z M22.2,6.6c0,0.3-0.1,0.6-0.3,0.8c-0.2,0.2-0.5,0.3-0.8,0.3h-2.8c-0.3,0-0.6-0.1-0.8-0.3
		c-0.2-0.2-0.3-0.5-0.3-0.8V3.9c0-0.3,0.1-0.6,0.3-0.8c0.2-0.2,0.5-0.3,0.8-0.3H21c0.3,0,0.6,0.1,0.8,0.3c0.2,0.2,0.3,0.5,0.3,0.8
		V6.6z"/>
</g>
</svg>
